<?xml version="1.0" standalone="no"?>
<!DOCTYPE svg PUBLIC "-//W3C//DTD SVG 20010904//EN"
 "http://www.w3.org/TR/2001/REC-SVG-20010904/DTD/svg10.dtd">
<svg version="1.0" xmlns="http://www.w3.org/2000/svg"
 width="626.000000pt" height="626.000000pt" viewBox="0 0 626.000000 626.000000"
 preserveAspectRatio="xMidYMid meet">

<g transform="translate(0.000000,626.000000) scale(0.100000,-0.100000)"
fill="#000000" stroke="none">
<path d="M3022 4857 c-60 -14 -68 -28 -22 -41 31 -9 30 -10 -46 -35 -87 -29
-103 -47 -50 -57 l36 -6 -40 -29 c-22 -16 -51 -46 -64 -66 -32 -51 -50 -141
-37 -188 l10 -36 -32 7 c-18 4 -48 23 -68 45 -46 50 -88 53 -128 11 -17 -19
-44 -33 -81 -42 -55 -12 -179 -67 -214 -94 -18 -14 -18 -16 3 -50 12 -19 44
-55 71 -79 33 -30 46 -48 40 -58 -4 -8 -15 -54 -25 -104 -19 -100 -24 -111
-89 -208 -80 -119 -85 -186 -18 -256 68 -72 180 -85 298 -36 20 8 38 14 40 12
2 -1 8 -45 14 -96 14 -115 9 -133 -101 -355 -43 -87 -79 -165 -79 -172 0 -23
-13 -15 -59 37 -32 35 -46 62 -52 96 -21 111 -138 154 -216 81 -54 -51 -37
-109 63 -221 404 -453 1086 -565 1610 -265 165 94 366 274 410 366 30 63 -3
131 -74 151 -80 23 -162 -46 -162 -135 0 -27 -69 -110 -70 -84 -1 39 -56 126
-129 205 -45 48 -81 91 -81 95 0 5 21 1 48 -7 78 -24 146 -5 210 58 32 31 72
97 72 118 0 5 -27 8 -59 8 -71 -2 -94 12 -158 94 -97 123 -115 139 -164 139
-24 -1 -55 -7 -69 -15 -14 -8 -27 -14 -30 -15 -3 0 -6 36 -6 80 -3 133 -54
268 -145 384 -22 27 -39 53 -39 58 0 5 35 44 78 86 103 101 136 166 136 272 1
61 -4 86 -26 132 -83 177 -285 263 -506 215z m328 -77 c98 -50 162 -138 164
-225 1 -64 -14 -73 -30 -18 -26 89 -104 193 -184 246 -38 24 1 22 50 -3z
m-213 -295 c29 -19 57 -35 62 -35 5 0 21 16 35 35 33 42 76 48 100 13 23 -32
20 -56 -14 -123 -37 -76 -37 -100 0 -135 29 -27 29 -28 10 -45 -30 -27 -25
-46 30 -121 62 -84 105 -171 125 -255 24 -102 22 -107 -37 -134 -91 -41 -224
-53 -325 -29 -24 6 -34 35 -26 75 4 22 15 31 56 46 64 25 75 45 18 32 -127
-28 -258 -96 -312 -160 -33 -40 -47 -49 -85 -55 -61 -9 -104 10 -104 45 0 15
6 35 14 46 7 11 16 32 19 47 6 21 17 30 58 43 35 12 77 40 133 89 120 104 248
235 242 245 -3 5 -27 14 -52 20 -100 25 -119 46 -149 161 -9 36 -23 75 -31 87
-18 28 -18 47 1 84 41 78 136 88 232 24z m-453 -44 c11 -12 21 -49 27 -98 14
-106 38 -155 118 -238 37 -38 78 -90 91 -115 l23 -45 -69 -63 -69 -63 -3 40
c-3 40 -22 59 -22 22 0 -44 -22 -82 -51 -88 -24 -4 -35 -17 -59 -68 -17 -35
-30 -75 -30 -89 0 -19 -10 -32 -38 -50 -47 -30 -133 -56 -181 -56 -86 1 -171
73 -171 144 0 41 17 79 65 147 52 74 66 106 86 206 32 160 63 193 182 193 l68
0 -7 83 c-7 87 -14 104 -45 109 -18 3 -19 4 -4 26 20 28 65 29 89 3z m-142
-69 c-3 -26 -9 -30 -57 -41 -29 -7 -76 -24 -105 -38 -48 -24 -53 -25 -68 -9
-16 16 -16 18 3 32 50 39 206 99 226 88 3 -2 4 -16 1 -32z m278 -35 c5 -17 9
-32 7 -34 -2 -2 -21 3 -42 10 -28 10 -41 21 -46 40 -9 34 -5 37 36 24 24 -7
37 -19 45 -40z m226 -643 c20 -48 14 -61 -43 -85 -116 -48 -164 -88 -182 -154
-14 -52 2 -95 72 -186 97 -127 90 -113 73 -147 -9 -18 -27 -32 -43 -37 -52
-12 -75 -37 -115 -121 -43 -92 -50 -96 -115 -69 -83 35 -143 108 -143 174 0
16 21 73 47 127 54 111 63 177 44 300 -9 57 -8 71 4 83 10 10 18 11 27 4 20
-16 82 -22 124 -13 28 6 51 22 79 55 36 40 126 104 148 105 4 0 15 -16 23 -36z
m414 -47 c-63 -42 -121 -60 -209 -63 -46 -2 -85 -5 -88 -7 -2 -2 6 -24 17 -48
29 -65 24 -79 -11 -26 -16 25 -46 60 -65 77 -28 24 -33 34 -24 45 8 10 19 11
43 4 18 -6 73 -10 122 -10 71 -1 105 5 160 24 90 31 97 32 55 4z m237 -55 c17
-20 51 -62 75 -92 59 -73 100 -100 154 -100 44 0 58 -12 28 -24 -72 -28 -149
21 -287 183 -25 29 -34 32 -65 28 -21 -3 -48 -8 -61 -12 -41 -14 -20 18 29 43
57 29 86 23 127 -26z m-602 -43 c40 -37 81 -105 100 -168 l7 -24 -73 7 c-41 4
-82 9 -91 12 -39 12 -15 -15 25 -28 38 -12 45 -20 76 -82 18 -37 33 -83 33
-102 0 -72 -79 -160 -148 -166 -59 -4 -69 28 -33 112 l21 48 -81 106 c-105
138 -112 168 -54 237 25 30 132 89 161 89 7 0 32 -18 57 -41z m459 -40 c28
-33 39 -59 56 -135 24 -103 66 -179 139 -249 22 -21 41 -44 41 -51 0 -19 -65
-71 -105 -84 -21 -7 -64 -10 -96 -8 -55 4 -63 8 -108 52 -54 53 -100 71 -210
82 l-71 7 0 41 c0 24 -12 66 -29 102 l-29 61 69 7 c101 9 169 38 222 94 24 27
50 65 56 85 7 20 16 37 21 37 5 0 24 -19 44 -41z m597 -388 c31 -32 37 -66 16
-96 -13 -16 -14 -14 -20 25 -3 27 -15 53 -33 71 -23 24 -25 29 -10 29 10 0 31
-13 47 -29z m-1851 -66 c0 -41 16 -68 79 -131 49 -51 58 -64 47 -73 -11 -9
-28 0 -80 44 -79 67 -84 75 -84 141 0 28 -3 62 -6 75 -7 23 -6 23 18 -4 14
-15 26 -39 26 -52z m1077 14 c83 -27 120 -76 159 -211 13 -45 31 -89 40 -99
14 -16 14 -18 -3 -27 -37 -20 -180 -60 -255 -72 -160 -26 -460 6 -581 61 -25
12 -26 13 -8 25 10 7 44 72 76 144 55 125 87 170 121 170 8 0 14 -11 14 -27 0
-93 151 -78 219 21 l29 42 76 -7 c42 -4 93 -13 113 -20z m-833 -97 c6 -10 -28
-87 -44 -97 -21 -13 -32 10 -20 41 19 48 51 77 64 56z m1080 -74 c17 -25 22
-98 6 -98 -15 0 -40 56 -40 90 0 36 13 39 34 8z m-6 -194 c-4 -19 -95 -58
-198 -84 -127 -32 -252 -42 -375 -30 -154 14 -286 53 -262 76 3 4 35 0 69 -9
237 -59 522 -42 708 41 56 25 62 26 58 6z"/>
<path d="M2562 4040 c-32 -13 -48 -53 -34 -86 13 -28 37 -23 29 7 -10 37 44
64 71 37 9 -9 15 -9 23 -1 7 7 3 17 -17 32 -29 23 -38 24 -72 11z"/>
<path d="M2497 3702 c-15 -17 -83 -51 -130 -66 -30 -10 -9 -25 26 -19 23 3 37
0 46 -11 40 -48 129 15 119 86 -4 29 -38 35 -61 10z"/>
<path d="M2278 2253 c-22 -5 -34 -64 -19 -91 23 -42 115 -39 132 5 12 31 2 71
-21 83 -19 10 -61 11 -92 3z"/>
<path d="M2710 2215 c0 -34 4 -44 20 -48 17 -4 20 -14 20 -58 l0 -52 -21 19
c-15 14 -40 20 -92 22 -62 3 -76 1 -99 -18 -36 -28 -48 -75 -48 -190 0 -156
23 -202 104 -213 53 -8 101 5 133 35 l23 21 0 -26 0 -27 90 0 90 0 0 45 c0 41
-2 45 -25 45 l-25 0 0 246 0 245 -85 -2 -85 -2 0 -42z m28 -223 c9 -6 12 -35
10 -108 l-3 -99 -57 -3 c-50 -3 -58 0 -68 19 -17 31 -9 177 10 189 18 12 90
13 108 2z"/>
<path d="M3487 2254 c-4 -4 -7 -24 -7 -45 0 -30 4 -38 23 -42 l22 -6 -3 -196
c-3 -186 -4 -195 -22 -195 -17 0 -20 -7 -20 -45 l0 -45 110 0 110 0 0 44 c0
39 -3 45 -22 48 -23 3 -23 3 -28 243 l-5 240 -75 3 c-41 2 -78 0 -83 -4z"/>
<path d="M1647 2213 c-4 -3 -7 -26 -7 -50 0 -39 2 -43 25 -43 l25 0 0 -169 c0
-168 0 -170 -22 -173 -20 -3 -23 -10 -26 -50 l-3 -48 120 0 121 0 0 50 c0 47
-2 50 -25 50 -24 0 -25 3 -25 58 0 32 3 61 6 64 17 17 62 -13 95 -63 l37 -54
-24 -3 c-22 -3 -24 -8 -24 -53 l0 -49 131 0 130 0 -3 48 c-3 43 -5 47 -30 50
-21 3 -40 21 -83 82 -30 44 -64 84 -76 91 -21 11 -21 11 -1 25 11 8 43 43 72
79 38 48 58 65 76 65 22 0 24 4 24 50 l0 50 -115 0 -115 0 0 -50 c0 -43 3 -50
20 -50 26 0 26 -2 -15 -59 -36 -50 -52 -61 -86 -61 -17 0 -19 8 -19 60 0 57 1
60 25 60 23 0 25 3 25 50 l0 50 -113 0 c-63 0 -117 -3 -120 -7z"/>
<path d="M2978 2214 c-5 -4 -8 -27 -8 -51 0 -39 2 -43 25 -43 l25 0 0 -169 c0
-168 0 -170 -22 -173 -20 -3 -23 -10 -26 -50 l-3 -48 120 0 121 0 0 50 c0 47
-2 50 -25 50 -23 0 -25 3 -25 49 l0 48 98 5 c53 3 108 10 120 17 34 18 52 70
52 151 0 86 -19 136 -57 152 -32 13 -384 24 -395 12z m300 -106 c16 -16 16
-117 0 -123 -28 -9 -88 -14 -103 -9 -11 5 -15 22 -15 75 l0 69 53 0 c29 0 58
-5 65 -12z"/>
<path d="M2220 2053 c0 -33 4 -43 20 -48 18 -6 20 -15 20 -121 0 -107 -1 -114
-20 -114 -17 0 -20 -7 -20 -45 l0 -45 110 0 110 0 0 44 c0 39 -3 45 -22 48
-23 3 -23 6 -28 163 l-5 160 -83 0 -82 0 0 -42z"/>
<path d="M3807 2085 c-30 -17 -47 -50 -47 -91 0 -22 4 -24 53 -24 41 0 55 4
65 20 9 15 23 20 55 20 50 0 67 -13 67 -51 0 -26 -1 -26 -84 -32 -98 -7 -139
-24 -162 -69 -20 -38 -13 -112 14 -141 46 -52 130 -57 196 -12 36 25 46 23 46
-7 0 -16 9 -18 80 -18 l80 0 0 45 c0 38 -3 45 -20 45 -19 0 -20 7 -20 108 0
120 -10 170 -41 198 -29 26 -239 33 -282 9z m193 -254 c0 -38 -32 -61 -82 -61
-44 0 -66 27 -48 59 13 25 25 29 83 30 46 1 47 0 47 -28z"/>
<path d="M4444 2091 c-11 -12 -3 -81 11 -88 13 -8 11 -22 -16 -101 l-32 -92
-31 93 c-25 74 -29 94 -19 103 7 6 13 28 13 48 l0 36 -100 0 -100 0 0 -40 c0
-33 4 -41 24 -46 20 -5 33 -30 85 -166 58 -152 61 -162 46 -184 -14 -21 -23
-24 -81 -24 l-65 0 3 -47 c3 -44 5 -47 38 -56 19 -5 59 -7 89 -5 83 7 103 35
197 276 68 174 82 202 102 204 12 2 22 6 22 11 0 4 0 22 0 41 l0 35 -91 3
c-50 2 -93 1 -95 -1z"/>
<path d="M2464 1516 c-43 -19 -64 -53 -64 -104 0 -63 40 -102 105 -102 25 0
58 6 74 14 78 41 61 171 -26 195 -47 13 -51 13 -89 -3z m84 -52 c24 -16 29
-53 12 -85 -15 -28 -74 -26 -94 3 -21 29 -20 40 5 72 23 30 45 33 77 10z"/>
<path d="M3015 1523 c-32 -8 -55 -34 -55 -63 0 -34 24 -56 72 -64 45 -8 55
-21 28 -36 -16 -8 -28 -8 -50 3 -26 13 -30 13 -45 -3 -15 -17 -15 -19 7 -34
29 -20 107 -21 136 0 15 10 22 25 22 48 0 40 -18 57 -68 65 -25 4 -38 12 -40
25 -4 17 1 18 36 13 30 -5 43 -3 53 9 10 13 10 17 -2 25 -8 5 -22 9 -31 9 -9
0 -22 2 -30 4 -7 2 -22 1 -33 -1z"/>
<path d="M3430 1512 c-57 -28 -76 -92 -45 -151 19 -37 64 -55 121 -48 59 6 85
32 91 91 7 56 -13 91 -62 112 -45 18 -63 18 -105 -4z m88 -48 c15 -10 22 -25
22 -48 0 -40 -15 -56 -55 -56 -40 0 -55 16 -55 56 0 32 28 64 55 64 6 0 21 -7
33 -16z"/>
<path d="M2190 1495 c0 -21 5 -25 30 -25 l30 0 0 -80 0 -80 30 0 30 0 0 80 0
80 30 0 c25 0 30 4 30 25 0 25 -1 25 -90 25 -89 0 -90 0 -90 -25z"/>
<path d="M2680 1456 c30 -47 40 -73 40 -105 0 -39 1 -41 30 -41 29 0 30 2 30
46 0 36 8 57 40 105 l41 59 -35 0 c-29 0 -37 -6 -56 -37 l-22 -37 -21 37 c-17
31 -26 37 -54 37 l-33 0 40 -64z"/>
<path d="M3160 1495 c0 -21 5 -25 30 -25 l30 0 0 -80 0 -80 30 0 30 0 0 80 0
80 30 0 c25 0 30 4 30 25 0 25 -1 25 -90 25 -89 0 -90 0 -90 -25z"/>
<path d="M3650 1415 l0 -105 30 0 c28 0 30 3 30 35 0 19 3 35 8 35 4 0 21 -16
37 -36 24 -29 36 -35 59 -32 l29 3 -28 33 -28 33 22 20 c28 26 27 72 -1 99
-17 16 -35 20 -90 20 l-68 0 0 -105z m119 47 c13 -24 -4 -42 -36 -42 -19 0
-23 5 -23 30 0 25 4 30 25 30 13 0 29 -8 34 -18z"/>
<path d="M3890 1415 l0 -105 80 0 c79 0 80 0 80 25 0 24 -3 25 -55 25 -42 0
-55 3 -55 15 0 11 12 15 50 15 47 0 50 2 50 25 0 23 -3 25 -50 25 -38 0 -50 4
-50 15 0 12 13 15 55 15 52 0 55 1 55 25 0 25 -1 25 -80 25 l-80 0 0 -105z"/>
</g>
</svg>
